/vscmnt/brussel_pixiu_data/_data_brussel/112/vsc11236/PredSimResults/SUBJ09mtu3D/worker6.mot
version=1
nRows=6
nColumns=50
inDegrees=yes
endheader
                time	         pelvis_tilt	         pelvis_list	     pelvis_rotation	           pelvis_tx	           pelvis_ty	           pelvis_tz	       hip_flexion_r	     hip_adduction_r	      hip_rotation_r	        knee_angle_r	       ankle_angle_r	         mtp_angle_r	       hip_flexion_l	     hip_adduction_l	      hip_rotation_l	        knee_angle_l	       ankle_angle_l	         mtp_angle_l	    lumbar_extension	      lumbar_bending	     lumbar_rotation	 ercspn_r/activation	 intobl_r/activation	 extobl_r/activation	    abd_r/activation	    add_r/activation	hamstrings_r/activation	bifemsh_r/activation	glut_max_r/activation	iliopsoas_r/activation	rect_fem_r/activation	  vasti_r/activation	gastroc_r/activation	 soleus_r/activation	tib_ant_r/activation	 ercspn_l/activation	 intobl_l/activation	 extobl_l/activation	    abd_l/activation	    add_l/activation	hamstrings_l/activation	bifemsh_l/activation	glut_max_l/activation	iliopsoas_l/activation	rect_fem_l/activation	  vasti_l/activation	gastroc_l/activation	 soleus_l/activation	tib_ant_l/activation	
          1.18701245	         -3.43014364	         -2.42839378	          7.54570287	          1.47189544	          0.99133679	         -0.00152694	         24.06031977	          1.42246202	          0.57771039	          2.18707433	          4.86322333	          0.24614158	        -11.65385668	         -2.71912254	          4.35757534	        -12.40718593	         11.18154514	         28.57088108	        -13.73989272	          0.23626319	         -3.11850625	          0.02892687	          0.22573697	          0.04389604	          0.06039342	          0.07127150	          0.05679713	          0.37739208	          0.00999999	          0.16537343	          0.00999999	          0.01923145	          0.06080945	          0.00999999	          0.31448738	          0.00999999	          0.00999999	          0.00999999	          0.04238154	          0.01206119	          0.02958866	          0.20995981	          0.03512582	          0.29466291	          0.00999999	          0.01000000	          0.42824487	          0.28339277	          0.00999999	
          1.19888258	         -3.40671319	         -2.35351583	          7.31338930	          1.49036012	          0.98898310	         -0.00155773	         24.00980813	          1.62644150	          0.80378190	          0.70612069	          4.01825356	          0.24654279	        -12.44209688	         -2.66094129	          3.75790223	        -13.05547325	         10.38588827	         30.27170763	        -13.37294489	          0.53920637	         -3.11937138	          0.02414929	          0.19232914	          0.03664614	          0.07816564	          0.09169780	          0.06075787	          0.31506171	          0.06134784	          0.13806023	          0.00999999	          0.01605517	          0.05076611	          0.01434809	          0.31039350	          0.01835575	          0.00999999	          0.01202635	          0.03538177	          0.03598280	          0.02881984	          0.17528269	          0.02932441	          0.34557601	          0.00999999	          0.00999999	          0.40187760	          0.24083946	          0.00999999	
          1.21075270	         -3.37740805	         -2.30433569	          7.02811716	          1.50893682	          0.98697706	         -0.00157144	         23.83010782	          1.84042736	          0.99490550	         -0.84215317	          3.33916830	          0.20969359	        -12.97450726	         -2.59592935	          3.12548969	        -14.17491025	          9.45991797	         32.01845802	        -13.00345262	          0.88865270	         -3.09418149	          0.02016077	          0.16056392	          0.03059363	          0.14354425	          0.08940357	          0.07345666	          0.26302588	          0.09080809	          0.11525810	          0.00999999	          0.01340349	          0.04238154	          0.01197835	          0.38530997	          0.01532410	          0.00999999	          0.01542682	          0.02953809	          0.03385476	          0.04076834	          0.14633287	          0.02448117	          0.37948702	          0.00999999	          0.01000018	          0.36912171	          0.20106223	          0.00999999	
          1.22262283	         -3.34895019	         -2.28329381	          6.69579918	          1.52728572	          0.98564155	         -0.00155781	         23.49438344	          2.07594207	          1.14670811	         -2.06344582	          2.57412601	          0.16836002	        -13.11344698	         -2.52817759	          2.46798214	        -15.94146022	          8.33372348	         33.78859574	        -12.66787728	          1.28494632	         -3.03931832	          0.01683100	          0.13404506	          0.02554077	          0.19414654	          0.10512661	          0.07296781	          0.21958433	          0.12476672	          0.09622198	          0.00999999	          0.01118976	          0.03538177	          0.00999999	          0.41773148	          0.03959594	          0.00999999	          0.01287891	          0.02465956	          0.03905417	          0.03653501	          0.12216442	          0.02043784	          0.39730824	          0.00999999	          0.01000000	          0.30906595	          0.16785464	          0.00999999	
          1.23449295	         -3.32291003	         -2.28412848	          6.32293412	          1.54514451	          0.98517753	         -0.00151816	         23.07464072	          2.32584442	          1.26224265	         -3.13328733	          2.08719036	          0.12452488	        -12.77682637	         -2.46027930	          1.79762889	        -18.44834857	          6.96182611	         35.44791645	        -12.39646450	          1.71890103	         -2.95339797	          0.01405118	          0.11190607	          0.02132243	          0.23113304	          0.11402163	          0.07047442	          0.18331761	          0.15205640	          0.08032989	          0.00999999	          0.00999999	          0.02953809	          0.00999999	          0.42519988	          0.06407765	          0.00999999	          0.01075182	          0.02058677	          0.05015593	          0.03050086	          0.10198765	          0.01706231	          0.38919421	          0.00999999	          0.00999999	          0.25802038	          0.14013164	          0.00999999	
          1.24636308	         -3.29965015	         -2.29279299	          5.91446210	          1.56235879	          0.98567962	         -0.00146466	         22.60241483	          2.57152225	          1.33948721	         -4.09727420	          1.91085439	          0.09010382	        -11.94050958	         -2.39275060	          1.13060240	        -21.70216689	          5.37741356	         36.62231367	        -12.20654642	          2.17239794	         -2.83603102	          0.02220424	          0.09342358	          0.01780080	          0.24691346	          0.11076304	          0.06116385	          0.15304073	          0.17415567	          0.06706254	          0.00999999	          0.01827943	          0.02465956	          0.01437050	          0.40564255	          0.08953032	          0.00999999	          0.00999999	          0.01718664	          0.05679424	          0.02546331	          0.08514329	          0.01424429	          0.35011277	          0.00999999	          0.00999999	          0.21540554	          0.11698739	          0.00999999	
